<svg id="Layer_1" data-name="Layer 1" xmlns="http://www.w3.org/2000/svg" xmlns:xlink="http://www.w3.org/1999/xlink" viewBox="0 0 335.29 469.68">
  <defs>
    <style>
      .cls-1 {
        fill: #265aa6;
      }

      .cls-2 {
        fill: #449dd7;
      }

      .cls-3 {
        fill: #fff;
      }

      .cls-4 {
        fill: url(#linear-gradient);
      }

      .cls-5 {
        fill: url(#linear-gradient-2);
      }

      .cls-6 {
        fill: url(#linear-gradient-3);
      }

      .cls-10, .cls-7 {
        opacity: 0.05;
      }

      .cls-10, .cls-8 {
        fill: #1d1d1b;
      }

      .cls-9 {
        fill: url(#linear-gradient-4);
      }
    </style>
    <linearGradient id="linear-gradient" x1="118.78" y1="286" x2="118.78" y2="205.2" gradientUnits="userSpaceOnUse">
      <stop offset="0.39" stop-color="#dadada" stop-opacity="0"/>
      <stop offset="1" stop-color="#dadada"/>
    </linearGradient>
    <linearGradient id="linear-gradient-2" x1="219.73" y1="245.7" x2="219.73" y2="161.71" xlink:href="#linear-gradient"/>
    <linearGradient id="linear-gradient-3" x1="70.18" y1="322.04" x2="264.24" y2="322.04" gradientUnits="userSpaceOnUse">
      <stop offset="0" stop-color="#eeeded"/>
      <stop offset="1" stop-color="#fff"/>
    </linearGradient>
    <linearGradient id="linear-gradient-4" x1="61.25" y1="182.28" x2="271.94" y2="182.28" xlink:href="#linear-gradient-3"/>
  </defs>
  <g>
    <polygon class="cls-1" points="303.85 433 167.64 469.68 31.43 433 0 92.48 335.29 92.48 303.85 433"/>
    <polygon class="cls-2" points="167.64 120.06 167.64 440.43 167.95 440.51 278.18 410.83 303.62 120.06 167.64 120.06"/>
    <g>
      <polygon class="cls-3" points="90.34 42.45 90.34 22.18 119.91 22.18 119.91 0 68.16 0 68.16 62.68 119.91 62.68 119.91 42.45 90.34 42.45"/>
      <path class="cls-3" d="M219.4,61h20.68V38.8H188.32V61c6.93,6.93,10.54,10.24,20.55,20.25l-20.55,0v20.24h51.76V81.25Z" transform="translate(-46.3 -38.8)"/>
      <path class="cls-3" d="M292.76,61h20.67V38.8H261.67V61c6.93,6.93,10.54,10.24,20.55,20.25l-20.55,0v20.24h51.76V81.25Z" transform="translate(-46.3 -38.8)"/>
    </g>
    <g>
      <polygon class="cls-3" points="167.52 205.2 70.03 245.81 73.26 286 167.52 245.7 267.79 202.84 271.94 161.71 167.52 205.2"/>
      <polygon class="cls-4" points="70.03 245.81 73.26 286 167.52 245.7 167.52 205.2 70.03 245.81"/>
      <polygon class="cls-5" points="271.94 161.71 167.52 205.2 167.52 245.7 267.79 202.84 271.94 161.71"/>
      <polygon class="cls-6" points="70.18 245.81 73.42 286 218.04 286.47 214.81 340.06 167.22 353.46 121.47 341.91 118.69 308.64 76.19 308.64 81.73 372.87 167.68 398.28 253.15 373.33 264.24 245.81 70.18 245.81"/>
      <g class="cls-7">
        <polygon class="cls-8" points="167.52 245.81 70.03 245.81 73.26 286 167.52 286.31 167.52 245.81"/>
        <polygon class="cls-8" points="167.52 353.33 167.06 353.46 121.32 341.91 118.55 308.64 76.04 308.64 81.58 372.87 167.52 398.28 167.52 353.33"/>
      </g>
      <polygon class="cls-9" points="61.25 161.71 271.94 161.71 267.79 202.84 66.33 202.84 61.25 161.71"/>
      <polygon class="cls-10" points="167.52 161.71 61.25 161.71 66.33 202.84 167.52 202.84 167.52 161.71"/>
    </g>
  </g>
</svg>
