<svg id="Layer_1" data-name="Layer 1" xmlns="http://www.w3.org/2000/svg" viewBox="0 0 492.74 695.5">
  <defs>
    <style>
      .cls-1 {
        fill: #e44d26;
      }

      .cls-2 {
        fill: #f16529;
      }

      .cls-3 {
        fill: #ebebeb;
      }

      .cls-4 {
        fill: #fff;
      }
    </style>
  </defs>
  <polygon class="cls-1" points="44.84 639.64 0 136.68 492.74 136.68 447.85 639.56 246.07 695.5 44.84 639.64"/>
  <polygon class="cls-2" points="246.37 652.74 409.42 607.54 447.78 177.81 246.37 177.81 246.37 652.74"/>
  <polygon class="cls-3" points="246.37 364.35 164.74 364.35 159.1 301.18 246.37 301.18 246.37 239.49 246.15 239.49 91.69 239.49 93.17 256.04 108.33 426.03 246.37 426.03 246.37 364.35"/>
  <polygon class="cls-3" points="246.37 524.55 246.1 524.62 177.4 506.07 173.01 456.88 139.62 456.88 111.08 456.88 119.72 553.73 246.08 588.81 246.37 588.73 246.37 524.55"/>
  <path class="cls-4" d="M106.05,47.5H137.4v31h28.68v-31h31.35v93.79H166.08V109.88H137.4v31.41H106.06V47.5Z" transform="translate(-60.21 -47.5)"/>
  <path class="cls-4" d="M238.65,78.6h-27.6V47.5h86.56V78.6H270v62.69H238.65V78.6Z" transform="translate(-60.21 -47.5)"/>
  <path class="cls-4" d="M311.35,47.5H344l20.11,33L384.23,47.5h32.7v93.79H385.71V94.8l-21.57,33.35h-.54L342,94.8v46.49H311.35Z" transform="translate(-60.21 -47.5)"/>
  <path class="cls-4" d="M432.53,47.5h31.36v62.79H508v31H432.53Z" transform="translate(-60.21 -47.5)"/>
  <polygon class="cls-4" points="246.15 364.35 246.15 426.03 322.11 426.03 314.95 506.03 246.15 524.6 246.15 588.78 372.61 553.73 373.54 543.31 388.04 380.91 389.54 364.35 372.92 364.35 246.15 364.35"/>
  <polygon class="cls-4" points="246.15 239.49 246.15 277.81 246.15 301.03 246.15 301.18 394.96 301.18 394.96 301.18 395.15 301.18 396.39 287.31 399.2 256.04 400.68 239.49 246.15 239.49"/>
</svg>
