<svg id="Camada_1" data-name="Camada 1" xmlns="http://www.w3.org/2000/svg" viewBox="0 0 1782.88 1077.94"><defs><style>.cls-1{fill:#fff;}</style></defs><title>nextjs</title><path class="cls-1" d="M779.24,496.67h336.27v26.79H810.07V725.05h287.22v26.79H810.07V973.17H1119V1000H779.24Zm366.39,0h35.73L1339.69,718l161.83-221.33,220.11-281.14L1360,741.26,1546.35,1000h-37.13L1339.69,764.53,1169.46,1000H1133l187.74-258.7L1145.64,496.67Zm414,26.79V496.67h383.19v26.79H1766.33V1000H1735.5V523.46H1559.67ZM358.56,496.67h38.53l531.31,796.8L708.83,1000,390.78,534.73,389.38,1000H358.56ZM1939.77,965.08a11.21,11.21,0,1,1,11-11.2,10.9,10.9,0,0,1-11,11.2Zm30.28-29.49h16.5c.23,9,6.76,15,16.35,15,10.72,0,16.79-6.46,16.79-18.58V855.25h16.79v76.8c0,21.83-12.59,34.4-33.44,34.4-19.55,0-33-12.2-33-30.86Zm88.39-1h16.65c1.43,10.3,11.47,16.84,25.94,16.84,13.49,0,23.39-7,23.39-16.62,0-8.27-6.29-13.24-20.62-16.62l-13.94-3.38c-19.56-4.59-28.49-14.08-28.49-30,0-19.34,15.74-32.21,39.35-32.21,22,0,38,12.87,39,31.15h-16.34c-1.57-10-10.26-16.25-22.87-16.25-13.28,0-22.11,6.4-22.11,16.18,0,7.75,5.69,12.19,19.8,15.5l11.91,2.93c22.19,5.19,31.34,14.22,31.34,30.55,0,20.76-16.06,33.79-41.69,33.79-24,0-40.11-12.43-41.31-31.84Z" transform="translate(-358.56 -215.53)"/></svg>