<svg id="Camada_1" data-name="Camada 1" xmlns="http://www.w3.org/2000/svg" viewBox="0 0 608.47 541.36">
  <defs>
    <style>
      .cls-1 {
        fill: #53c1de;
      }

      .cls-2 {
        fill: #fff;
      }
    </style>
  </defs>
  <path class="cls-1" d="M553.19,221.44q-9.47-3.25-19.59-6.17,1.67-6.78,3-13.36c14.82-72,5.13-130-28-149-31.75-18.3-83.66.78-136.09,46.41q-7.56,6.58-15.15,13.9-5.06-4.83-10.08-9.31c-54.95-48.79-110-69.35-143.1-50.2-31.71,18.36-41.1,72.86-27.75,141.07q1.94,9.89,4.5,20.16-11.7,3.31-22.52,7.08C94.05,244.43,52.9,279.63,52.9,316.14c0,37.71,44.17,75.53,111.27,98.47,5.29,1.81,10.79,3.52,16.45,5.14q-2.76,11.1-4.78,21.72c-12.72,67-2.79,120.25,28.84,138.49,32.67,18.84,87.5-.52,140.88-47.19q6.33-5.53,12.7-11.7,8.25,7.93,16.45,15c51.71,44.5,102.79,62.47,134.39,44.18,32.63-18.89,43.24-76.06,29.47-145.62-1.05-5.32-2.28-10.74-3.65-16.27,3.85-1.13,7.63-2.31,11.31-3.53,69.76-23.11,115.14-60.48,115.14-98.69,0-36.64-42.46-72.08-108.18-94.7Z" transform="translate(-52.9 -45.97)"/>
  <path class="cls-2" d="M538.06,390.16q-5,1.65-10.22,3.19A609,609,0,0,0,497,316.27a611.71,611.71,0,0,0,29.61-76c6.22,1.8,12.27,3.7,18.09,5.71,56.3,19.38,90.65,48,90.65,70.12,0,23.52-37.09,54.06-97.32,74Zm-25,49.52c6.09,30.75,7,58.56,2.92,80.3-3.62,19.54-10.91,32.56-19.92,37.78-19.18,11.09-60.18-3.33-104.41-41.39q-7.61-6.54-15.3-13.95a610.72,610.72,0,0,0,51-64.76,607.58,607.58,0,0,0,82.4-12.7q1.88,7.5,3.3,14.72ZM260.35,555.84c-18.74,6.61-33.66,6.8-42.68,1.6-19.19-11.07-27.17-53.8-16.29-111.12,1.25-6.56,2.73-13.31,4.44-20.2a611.54,611.54,0,0,0,82,11.87,634.54,634.54,0,0,0,52.23,64.53q-5.82,5.63-11.59,10.68c-23.61,20.63-47.27,35.27-68.11,42.64ZM172.57,390c-29.66-10.14-54.17-23.32-71-37.7C86.52,339.38,78.9,326.55,78.9,316.14c0-22.15,33-50.42,88.12-69.62q10-3.5,20.95-6.59a623,623,0,0,0,29.65,76.84,634.26,634.26,0,0,0-30,77.94c-5.17-1.48-10.19-3-15-4.7ZM202,189.74c-11.44-58.44-3.84-102.52,15.27-113.59,20.35-11.78,65.37,5,112.81,47.15,3,2.69,6.08,5.51,9.13,8.42a623.86,623.86,0,0,0-51.84,64.15,634,634,0,0,0-81.19,12.62c-1.58-6.37-3-12.63-4.18-18.75Zm262.46,64.81q-9-15.6-18.5-30.43c19.41,2.46,38,5.71,55.48,9.7A554.27,554.27,0,0,1,482,286.21q-8.28-15.7-17.51-31.66Zm-107-104.25a554.87,554.87,0,0,1,35.81,43.23q-17.87-.85-36.1-.86-18,0-35.82.84c11.82-15.59,23.93-30.07,36.11-43.21ZM249.71,254.73q-9,15.65-17.18,31.46c-7.56-17.95-14-35.6-19.33-52.65,17.36-3.88,35.87-7.06,55.16-9.46q-9.58,14.94-18.65,30.65Zm19.21,155.33a551.93,551.93,0,0,1-56.08-9c5.38-17.35,12-35.38,19.72-53.72q8.17,15.78,17.25,31.48h0q9.25,16,19.11,31.25Zm89.23,73.76c-12.32-13.3-24.61-28-36.61-43.82q17.47.69,35.6.69,18.6,0,36.73-.81a554.74,554.74,0,0,1-35.72,43.94ZM482.21,346.39a552.16,552.16,0,0,1,20.44,53.53,551.48,551.48,0,0,1-56.76,9.68q9.47-15,18.68-31,9.29-16.11,17.64-32.24Zm-40.16,19.26c-9.51,16.49-19.28,32.23-29.19,47.09-18.06,1.3-36.71,2-55.72,2s-37.35-.59-55.09-1.74c-10.31-15-20.29-30.84-29.74-47.17h0c-9.43-16.28-18.1-32.7-26-49,7.86-16.37,16.51-32.81,25.88-49.06h0c9.4-16.3,19.29-32,29.5-47,18.1-1.37,36.65-2.08,55.41-2.08h0c18.84,0,37.42.71,55.51,2.09,10.06,14.86,19.88,30.52,29.31,46.82,9.55,16.48,18.31,32.8,26.24,48.82-7.91,16.28-16.65,32.78-26.15,49.25ZM495.67,75.38c20.38,11.75,28.3,59.14,15.5,121.28q-1.23,6-2.74,12.1a621.15,621.15,0,0,0-81.35-12.85,610.91,610.91,0,0,0-51.44-64.2q7-6.75,14-12.83c44.92-39.1,86.9-54.53,106-43.5Z" transform="translate(-52.9 -45.97)"/>
  <path class="cls-1" d="M357.14,261.81a54.34,54.34,0,1,1-54.34,54.33,54.32,54.32,0,0,1,54.34-54.33" transform="translate(-52.9 -45.97)"/>
</svg>
